# xmcd
#
# Track frame offsets: 
#        150
#        17882
#        36810
#        59888
#        75651
#        89297
#        99985
#        121293
#        136447
#        153064
#        166507
#        176841
#
# Disc length: 2625 seconds
#
# Revision: 0
# Processed by: cddbd v1.5.2PL0 Copyright (c) Steve Scherf et al.
# Submitted via: ExactAudioCopy v1.0b4
#
DISCID=910a3f0c
DTITLE=John Mayall and the Bluesbreakers - John Mayall (LP)
DYEAR=1966
DGENRE=Blues
TTITLE0=Checkin' Up On My Baby
TTITLE1=Broken Wings
TTITLE2=My Time After A While
TTITLE3=Ready To Ride
TTITLE4=Double Crossin' Time
TTITLE5=Leaping Christine
TTITLE6=Killing Time
TTITLE7=Brand New Start
TTITLE8=2401
TTITLE9=Someday After A While (You'll Ber Sorry)
TTITLE10=She' s Too Young
TTITLE11=I Can Quit You Baby
EXTD=
EXTT0=
EXTT1=
EXTT2=
EXTT3=
EXTT4=
EXTT5=
EXTT6=
EXTT7=
EXTT8=
EXTT9=
EXTT10=
EXTT11=
PLAYORDER=
